# xmcd CD database file
#
# Track frame offsets:
#	150
#	15840
#	33777
#	49670
#	65497
#	83212
#	93712
#	109710
#	126175
#	142375
#	160545
#	180022
#	197752
#	212272
#	229015
#	244430
#	259135
#	275735
#
# Disc length: 3791 seconds
#
# Revision: 0
# Processed by: cddbd v1.5.1PL0 Copyright (c) Steve Scherf et al.
# Submitted via: CDex 1.50beta10
#
DISCID=f20ecd12
DTITLE=Various Artist - All Time 75 Salsa and Dance Favourites [CD1)
DYEAR=1991
DGENRE=Salsa
TTITLE0=De Oliviera - Lambada
TTITLE1=Baliardo, Bouchiki, Reyes - Bamboleo
TTITLE2=Trad. Arr. Maijer, van Ravenswaay - Copacabana
TTITLE3=Migliacii, Modugno, Parish - Volare
TTITLE4=De Prijck, Van Holmen - Disco Samba
TTITLE5=Tradd. - El Real
TTITLE6=Belafonte, Burgess - Cocoanut Woman
TTITLE7=Tradd. Arr. Majer, van Ravenswaay - Jamaica Farewell
TTITLE8=H. Hildebrandt-Winhauer, Anna Lia Bright - Lambada Quente
TTITLE9=Tradd. Arr. Majer, van Ravenswaay - Cielito Lindo
TTITLE10=Marti, Angulo, Seeger - Quantanamera
TTITLE11=Renis, Testa - Quando Quando Quando
TTITLE12=Tradd. Arr. Majer, van Ravenswaay - Esperanza
TTITLE13=David, Reklov - Lambada Copacabana
TTITLE14=Thomas, Belafonte, Thomas - Mathilda
TTITLE15=Solano, Ochaita, Valerio - El Porompompero
TTITLE16=Tradd. Arr. Majer, van Ravenswaay - La Paloma
TTITLE17=Aparecida, Agudelo, De Bahia - Lambada de Lola
EXTD=YEAR: 1991
EXTT0=
EXTT1=
EXTT2=
EXTT3=
EXTT4=
EXTT5=
EXTT6=
EXTT7=
EXTT8=
EXTT9=
EXTT10=
EXTT11=
EXTT12=
EXTT13=
EXTT14=
EXTT15=
EXTT16=
EXTT17=
PLAYORDER=
